<?xml version="1.0" standalone="no"?>
<!DOCTYPE svg PUBLIC "-//W3C//DTD SVG 20010904//EN"
 "http://www.w3.org/TR/2001/REC-SVG-20010904/DTD/svg10.dtd">
<svg version="1.0" xmlns="http://www.w3.org/2000/svg"
 width="300.000000pt" height="300.000000pt" viewBox="0 0 300.000000 300.000000"
 preserveAspectRatio="xMidYMid meet">
<metadata>
Created by potrace 1.14, written by Peter Selinger 2001-2017
</metadata>
<g transform="translate(0.000000,300.000000) scale(0.100000,-0.100000)"
fill="#000000" stroke="none">
<path d="M2318 2538 c-8 -13 -26 -56 -42 -95 -15 -40 -29 -73 -30 -73 -1 0
-19 9 -41 20 -75 38 -155 28 -483 -65 -225 -63 -294 -70 -300 -27 -2 13 4 35
13 49 16 24 16 25 -2 20 -10 -3 -39 -10 -66 -17 -63 -17 -107 -65 -107 -119 0
-73 71 -100 220 -81 65 7 96 8 104 0 5 -5 8 -10 6 -11 -23 -4 -70 -8 -150 -14
-155 -12 -214 16 -215 100 0 50 -10 50 -24 -1 -11 -39 -1 -76 26 -107 9 -9 14
-20 11 -23 -13 -13 -156 -16 -191 -5 -72 24 -96 93 -61 176 l15 37 -28 -6
c-102 -25 -156 -86 -157 -177 0 -113 78 -159 279 -166 142 -5 165 -9 165 -28
0 -8 -4 -15 -10 -15 -5 0 -10 5 -10 10 0 6 -54 10 -147 9 -135 -2 -153 0 -207
22 -75 30 -97 60 -105 141 l-6 63 -13 -34 c-6 -19 -12 -52 -12 -74 0 -34 6
-46 39 -78 l40 -37 -36 -7 c-19 -3 -99 -6 -176 -6 -311 0 -475 71 -548 236
-11 25 -23 45 -26 45 -3 0 -4 -47 -1 -105 4 -99 7 -108 38 -153 38 -56 100
-102 191 -140 l64 -27 315 0 c173 0 326 -4 340 -9 28 -9 60 -35 60 -48 0 -5
-10 -2 -22 6 -36 22 -162 28 -314 16 -76 -6 -189 -12 -251 -13 -61 -1 -109 -5
-105 -8 4 -4 25 -12 47 -19 75 -23 205 -92 230 -122 l25 -30 0 -278 0 -278
-68 -50 c-80 -60 -106 -87 -97 -101 4 -7 76 -11 207 -11 l200 0 48 35 c53 39
60 41 60 20 0 -8 9 -24 20 -35 17 -17 33 -20 124 -20 l104 0 12 -72 c7 -40 16
-90 20 -110 9 -42 9 -43 -88 -107 -35 -24 -61 -48 -59 -54 3 -9 73 -13 252
-15 232 -2 253 -1 314 19 119 39 194 108 258 234 43 84 58 134 74 244 14 102
6 331 -15 416 -8 33 -13 61 -11 63 1 2 23 -10 49 -26 25 -16 83 -44 128 -62
142 -57 185 -92 309 -252 78 -102 111 -125 199 -144 97 -20 130 -12 171 39 18
23 48 55 66 70 27 23 33 36 33 67 0 21 -9 54 -19 72 -11 18 -31 87 -46 153
-20 91 -35 135 -65 185 -53 90 -74 165 -65 242 7 55 4 68 -23 127 -126 271
-122 260 -122 334 l0 71 -43 -42 c-47 -46 -61 -50 -96 -25 -25 17 -95 158
-125 251 -10 28 -21 52 -26 52 -4 0 -14 -10 -22 -22z m62 -150 c34 -109 60
-158 83 -158 7 0 35 -18 62 -40 28 -21 62 -48 76 -59 17 -13 31 -38 38 -68 7
-26 31 -81 53 -121 39 -70 40 -76 42 -175 2 -101 3 -103 54 -204 37 -72 61
-137 81 -220 31 -130 44 -168 60 -178 22 -13 10 -39 -42 -94 -30 -31 -56 -61
-58 -68 -5 -13 -37 -22 -38 -10 -3 33 2 50 24 73 14 15 23 34 20 42 -3 7 -5
29 -5 47 0 41 -23 52 -51 24 -25 -25 -39 -13 -39 36 0 35 15 55 42 55 10 0 18
3 18 6 0 15 -27 54 -70 100 -56 59 -70 100 -70 200 0 66 -4 79 -54 181 -42 85
-64 119 -99 148 -51 43 -58 63 -59 183 0 40 -3 72 -7 72 -4 0 -29 -23 -56 -51
-28 -28 -63 -57 -78 -66 -28 -14 -29 -14 -22 9 4 13 21 50 38 83 27 53 30 69
28 142 0 45 -5 92 -9 104 -8 21 -11 20 -45 -26 -20 -26 -37 -45 -37 -41 0 13
74 186 79 186 3 0 22 -50 41 -112z m-232 -41 c3 -15 0 -16 -22 -6 -32 15 -149
-11 -387 -87 -94 -30 -202 -59 -239 -64 -158 -22 -249 39 -170 115 36 35 47
29 23 -13 -17 -30 -17 -32 0 -49 15 -15 35 -18 125 -17 96 0 118 4 222 39 290
96 440 124 448 82z m-1218 -128 c-28 -55 -24 -115 10 -140 48 -35 133 -49 260
-42 129 7 170 1 170 -23 0 -13 -3 -14 -15 -4 -11 9 -45 10 -152 2 -196 -15
-288 6 -320 72 -18 40 -11 83 27 144 28 46 44 40 20 -9z m1010 7 c0 -2 -28
-13 -62 -26 -88 -31 -245 -111 -320 -161 -83 -56 -202 -179 -258 -268 -25 -38
-48 -70 -52 -70 -5 -1 -8 16 -8 37 0 52 39 109 136 203 93 89 178 148 280 196
114 52 284 106 284 89z m22 -191 c-142 -148 -185 -241 -186 -400 l-1 -100 48
-87 c26 -48 47 -90 47 -93 0 -3 -18 -5 -39 -5 -38 0 -43 4 -86 64 -25 35 -52
83 -60 106 -18 50 -19 148 -4 220 6 28 8 54 4 58 -16 16 -117 -116 -170 -221
l-54 -108 -6 45 c-9 60 10 115 76 213 70 103 135 171 222 231 71 49 254 152
271 152 5 0 -23 -34 -62 -75z m-1720 -113 c121 -50 216 -62 507 -62 278 0 345
-9 375 -52 21 -30 13 -34 -21 -9 -44 33 -190 43 -432 31 -258 -13 -347 -2
-461 55 -44 22 -130 104 -130 124 0 5 -3 16 -6 24 -3 8 17 -7 44 -33 32 -31
74 -57 124 -78z m1904 -24 c-81 -101 -99 -167 -72 -262 22 -76 73 -124 192
-180 83 -40 96 -50 132 -103 22 -32 52 -69 67 -83 15 -14 35 -42 46 -62 10
-20 29 -44 41 -52 15 -11 17 -16 8 -16 -8 0 -53 40 -100 88 -116 120 -163 156
-242 181 -88 29 -180 90 -215 142 -21 33 -28 56 -31 108 -4 76 11 121 60 176
25 29 120 94 137 95 2 0 -8 -15 -23 -32z m371 -40 c27 -30 56 -88 48 -96 -3
-4 -27 5 -53 18 -37 20 -48 31 -50 54 -3 25 10 45 29 46 3 0 15 -10 26 -22z
m-1284 -224 l57 -36 0 -128 c0 -121 -1 -130 -22 -144 -20 -14 -12 -16 98 -18
l119 -3 45 -242 c25 -133 47 -244 51 -247 3 -3 25 103 49 235 24 132 47 244
50 250 4 6 61 8 146 7 l139 -3 -57 -39 c-32 -21 -58 -40 -58 -40 0 -1 -29
-148 -65 -326 -36 -178 -65 -325 -65 -327 0 -2 -87 -3 -192 -3 l-193 1 44 38
44 38 -17 89 c-9 49 -21 112 -27 140 l-10 51 -117 -1 -117 -1 -21 70 c-12 39
-33 106 -46 150 l-24 80 -34 0 -35 0 -3 -147 -3 -148 -149 0 c-83 0 -150 2
-150 4 0 2 27 21 60 42 l60 39 0 287 0 287 -55 36 c-30 19 -55 37 -55 40 0 3
112 5 248 5 l248 0 57 -36z m722 -502 c19 -87 18 -146 -3 -206 -22 -65 -44
-75 -30 -14 13 55 4 151 -20 222 -19 55 -19 56 1 77 18 19 21 20 29 5 5 -9 16
-46 23 -84z"/>
<path d="M977 1524 c-4 -4 -7 -40 -7 -81 l0 -73 70 0 71 0 -3 78 -3 77 -60 3
c-34 2 -64 0 -68 -4z"/>
<path d="M1245 1238 c7 -24 26 -81 41 -128 25 -79 47 -120 64 -120 4 0 -5 52
-20 115 -26 111 -43 145 -82 166 -16 8 -16 6 -3 -33z"/>
</g>
</svg>
